<?xml version="1.0" encoding="UTF-8"?>
<!DOCTYPE svg PUBLIC "-//W3C//DTD SVG 1.1//EN" "http://www.w3.org/Graphics/SVG/1.1/DTD/svg11.dtd">
<!-- Creator: CorelDRAW -->
<svg xmlns="http://www.w3.org/2000/svg" xml:space="preserve" width="2048px" height="2048px" style="shape-rendering:geometricPrecision; text-rendering:geometricPrecision; image-rendering:optimizeQuality; fill-rule:evenodd; clip-rule:evenodd"
viewBox="0 0 2048 2048"
 xmlns:xlink="http://www.w3.org/1999/xlink">
 <defs>
  <style type="text/css">
   <![CDATA[
    .fil1 {fill:none}
    .fil0 {fill:#424242}
   ]]>
  </style>
 </defs>
 <g id="Layer_x0020_1">
  <metadata id="CorelCorpID_0Corel-Layer"/>
  <g id="_246794120">
   <path id="_246794264" class="fil0" d="M1792 1376.43c0,77.2335 -243.486,139.844 -543.84,139.844 -86.9989,0 -169.211,-5.26063 -242.129,-14.602 14.0599,-27.1937 20.8406,-57.9296 20.8406,-88.852 0,-22.1752 -3.85158,-44.1615 -11.4378,-64.8249 70.9418,8.2819 149.736,12.8965 232.726,12.8965 259.855,0 478.602,-45.2162 543.84,-106.717l0 122.256z"/>
   <ellipse id="_246794552" class="fil0" cx="1248.16" cy="630.586" rx="543.841" ry="139.845"/>
   <path id="_246794192" class="fil0" d="M1792 1189.97c0,77.2347 -243.486,139.845 -543.84,139.845 -89.8347,0 -174.573,-5.60552 -249.241,-15.5244 -0.418111,-0.666142 -0.839764,-1.33228 -1.26732,-1.9937 -12.7961,-19.7988 -29.4874,-36.8575 -49.1681,-49.689 -10.591,-42.7075 -33.6733,-81.3886 -66.391,-111.122 -6.5256,-5.9315 -13.3547,-11.4366 -20.4473,-16.5059 100.902,24.4606 236.892,39.4524 386.515,39.4524 259.855,0 478.602,-45.2174 543.84,-106.72l0 122.257z"/>
   <path id="_246794144" class="fil0" d="M1792 1003.51c0,77.2347 -243.487,139.845 -543.841,139.845 -300.353,0 -543.84,-62.6103 -543.84,-139.845l0 -122.256c65.2382,61.5024 283.987,106.719 543.84,106.719 259.855,0 478.603,-45.2162 543.841,-106.719l0 122.256z"/>
   <path id="_246794024" class="fil0" d="M1792 817.046c0,77.2347 -243.487,139.845 -543.841,139.845 -300.353,0 -543.84,-62.6103 -543.84,-139.845l0 -122.256c65.2382,61.5024 283.987,106.719 543.84,106.719 259.855,0 478.603,-45.2162 543.841,-106.719l0 122.256z"/>
   <path id="_246794048" class="fil0" d="M995.878 1412.82c0,-31.1575 -9.00237,-60.0969 -24.2575,-83.7001 -12.8728,-19.9193 -30.2681,-36.0886 -50.5902,-46.7185 -7.60512,-42.5256 -29.1744,-80.1638 -59.7827,-107.98 -34.102,-30.9921 -79.3548,-49.8839 -128.969,-49.8839 -49.2603,0 -94.2154,18.6142 -128.228,49.2 -24.8303,22.3299 -43.7977,51.0957 -54.3119,83.6965 -3.50551,-1.50118 -7.08308,-2.88425 -10.7268,-4.14213 -16.1929,-5.58662 -33.3437,-8.62323 -50.9481,-8.62323 -27.2386,0 -52.9052,7.02166 -75.2882,19.3595 -19.1646,10.5626 -35.889,25.0666 -49.0937,42.4276 -28.2544,4.14449 -53.4556,17.6421 -72.3461,37.2437 -21.8799,22.6996 -35.3362,53.5252 -35.3362,87.4394 0,29.3256 10.0547,56.3504 26.915,77.8205 14.6386,18.6414 34.4953,33.0579 57.4146,41.1024 4.7693,4.46221 11.1768,7.19528 18.2221,7.19528l23.2099 0 0.121654 0 0.477166 0 0.0897638 0 105.209 0c0.229134,0.00354331 0.458268,0.00236221 0.688583,0l376.177 0c0.243307,0.00236221 0.486615,0.00354331 0.731103,-0.0011811 38.674,-0.0484252 71.1875,-15.9284 94.3288,-42.1004 23.0658,-26.087 36.2941,-62.1449 36.2941,-102.336z"/>
  </g>
 </g>
 <rect class="fil1" width="2048" height="2048"/>
</svg>
